<svg width="44" height="44" viewBox="0 0 44 44" fill="none" xmlns="http://www.w3.org/2000/svg">
<rect width="44" height="44" rx="22" fill="#F2F2F2"/>
<g clip-path="url(#clip0_710_6222)">
<path d="M31.6 22.2273C31.6 21.5182 31.5364 20.8364 31.4182 20.1818H22V24.05H27.3818C27.15 25.3 26.4455 26.3591 25.3864 27.0682V29.5773H28.6182C30.5091 27.8364 31.6 25.2727 31.6 22.2273Z" fill="#4285F4"/>
<path d="M22 32C24.7 32 26.9636 31.1045 28.6181 29.5773L25.3863 27.0682C24.4909 27.6682 23.3454 28.0227 22 28.0227C19.3954 28.0227 17.1909 26.2636 16.4045 23.9H13.0636V26.4909C14.7091 29.7591 18.0909 32 22 32Z" fill="#34A853"/>
<path d="M16.4045 23.9C16.2045 23.3 16.0909 22.6591 16.0909 22C16.0909 21.3409 16.2045 20.7 16.4045 20.1V17.5091H13.0636C12.3864 18.8591 12 20.3864 12 22C12 23.6136 12.3864 25.1409 13.0636 26.4909L16.4045 23.9Z" fill="#FBBC04"/>
<path d="M22 15.9773C23.4681 15.9773 24.7863 16.4818 25.8227 17.4727L28.6909 14.6045C26.9591 12.9909 24.6954 12 22 12C18.0909 12 14.7091 14.2409 13.0636 17.5091L16.4045 20.1C17.1909 17.7364 19.3954 15.9773 22 15.9773Z" fill="#E94235"/>
</g>
<defs>
<clipPath id="clip0_710_6222">
<rect width="20" height="20" fill="white" transform="translate(12 12)"/>
</clipPath>
</defs>
</svg>
