<svg width="189" height="44" viewBox="0 0 189 44" fill="none" xmlns="http://www.w3.org/2000/svg">
<rect width="189" height="44" rx="22" fill="#F2F2F2"/>
<g clip-path="url(#clip0_760_7244)">
<path d="M35.6 22.2273C35.6 21.5182 35.5364 20.8364 35.4182 20.1818H26V24.05H31.3818C31.15 25.3 30.4455 26.3591 29.3864 27.0682V29.5773H32.6182C34.5091 27.8364 35.6 25.2727 35.6 22.2273V22.2273Z" fill="#4285F4"/>
<path d="M26.0001 32C28.7001 32 30.9637 31.1045 32.6183 29.5773L29.3865 27.0682C28.491 27.6682 27.3455 28.0227 26.0001 28.0227C23.3955 28.0227 21.191 26.2636 20.4046 23.9H17.0637V26.4909C18.7092 29.7591 22.091 32 26.0001 32Z" fill="#34A853"/>
<path d="M20.4045 23.9C20.2045 23.3 20.0909 22.6591 20.0909 22C20.0909 21.3409 20.2045 20.7 20.4045 20.1V17.5091H17.0636C16.3864 18.8591 16 20.3864 16 22C16 23.6136 16.3864 25.1409 17.0636 26.4909L20.4045 23.9V23.9Z" fill="#FBBC04"/>
<path d="M26.0001 15.9773C27.4683 15.9773 28.7864 16.4818 29.8228 17.4727L32.691 14.6045C30.9592 12.9909 28.6955 12 26.0001 12C22.091 12 18.7092 14.2409 17.0637 17.5091L20.4046 20.1C21.191 17.7364 23.3955 15.9773 26.0001 15.9773Z" fill="#E94235"/>
</g>
<path d="M54.248 24.4365C54.248 24.2314 54.2161 24.0492 54.1523 23.8896C54.0931 23.7301 53.986 23.5843 53.8311 23.4521C53.6761 23.32 53.4574 23.1924 53.1748 23.0693C52.8968 22.9417 52.5413 22.8118 52.1084 22.6797C51.6344 22.5339 51.1969 22.3721 50.7959 22.1943C50.3994 22.012 50.0531 21.8024 49.7568 21.5654C49.4606 21.3239 49.2305 21.0482 49.0664 20.7383C48.9023 20.4238 48.8203 20.0615 48.8203 19.6514C48.8203 19.2458 48.9046 18.8766 49.0732 18.5439C49.2464 18.2113 49.4902 17.9242 49.8047 17.6826C50.1237 17.4365 50.4997 17.2474 50.9326 17.1152C51.3656 16.9785 51.8441 16.9102 52.3682 16.9102C53.1064 16.9102 53.7422 17.0469 54.2754 17.3203C54.8132 17.5938 55.2256 17.9606 55.5127 18.4209C55.8044 18.8812 55.9502 19.3893 55.9502 19.9453H54.248C54.248 19.6172 54.1774 19.3278 54.0361 19.0771C53.8994 18.8219 53.6898 18.6214 53.4072 18.4756C53.1292 18.3298 52.776 18.2568 52.3477 18.2568C51.9421 18.2568 51.6048 18.3184 51.3359 18.4414C51.0671 18.5645 50.8665 18.7308 50.7344 18.9404C50.6022 19.1501 50.5361 19.387 50.5361 19.6514C50.5361 19.8382 50.5794 20.0091 50.666 20.1641C50.7526 20.3145 50.8848 20.4557 51.0625 20.5879C51.2402 20.7155 51.4635 20.8363 51.7324 20.9502C52.0013 21.0641 52.318 21.1735 52.6826 21.2783C53.234 21.4424 53.7148 21.6247 54.125 21.8252C54.5352 22.0212 54.877 22.2445 55.1504 22.4951C55.4238 22.7458 55.6289 23.0306 55.7656 23.3496C55.9023 23.6641 55.9707 24.0218 55.9707 24.4229C55.9707 24.8421 55.8864 25.2204 55.7178 25.5576C55.5492 25.8903 55.3076 26.1751 54.9932 26.4121C54.6833 26.6445 54.3096 26.8245 53.8721 26.9521C53.4391 27.0752 52.9561 27.1367 52.4229 27.1367C51.9443 27.1367 51.4727 27.0729 51.0078 26.9453C50.5475 26.8177 50.1283 26.624 49.75 26.3643C49.3717 26.0999 49.071 25.7718 48.8477 25.3799C48.6243 24.9834 48.5127 24.5208 48.5127 23.9922H50.2285C50.2285 24.3158 50.2832 24.5915 50.3926 24.8193C50.5065 25.0472 50.6637 25.234 50.8643 25.3799C51.0648 25.5212 51.2972 25.626 51.5615 25.6943C51.8304 25.7627 52.1175 25.7969 52.4229 25.7969C52.8239 25.7969 53.1589 25.7399 53.4277 25.626C53.7012 25.512 53.9062 25.3525 54.043 25.1475C54.1797 24.9424 54.248 24.7054 54.248 24.4365ZM59.0879 19.6035V27H57.4336V19.6035H59.0879ZM57.3242 17.6621C57.3242 17.4115 57.4062 17.2041 57.5703 17.04C57.7389 16.8714 57.9714 16.7871 58.2676 16.7871C58.5592 16.7871 58.7894 16.8714 58.958 17.04C59.1266 17.2041 59.2109 17.4115 59.2109 17.6621C59.2109 17.9082 59.1266 18.1133 58.958 18.2773C58.7894 18.4414 58.5592 18.5234 58.2676 18.5234C57.9714 18.5234 57.7389 18.4414 57.5703 18.2773C57.4062 18.1133 57.3242 17.9082 57.3242 17.6621ZM65.6299 19.6035H67.127V26.7949C67.127 27.4603 66.9857 28.0254 66.7031 28.4902C66.4206 28.9551 66.0264 29.3083 65.5205 29.5498C65.0146 29.7959 64.429 29.9189 63.7637 29.9189C63.4811 29.9189 63.1667 29.8779 62.8203 29.7959C62.4785 29.7139 62.1458 29.5817 61.8223 29.3994C61.5033 29.2217 61.2367 28.987 61.0225 28.6953L61.7949 27.7246C62.0592 28.0391 62.3509 28.2692 62.6699 28.415C62.9889 28.5609 63.3239 28.6338 63.6748 28.6338C64.0531 28.6338 64.3743 28.5632 64.6387 28.4219C64.9076 28.2852 65.1149 28.0824 65.2607 27.8135C65.4066 27.5446 65.4795 27.2165 65.4795 26.8291V21.2783L65.6299 19.6035ZM60.6055 23.3838V23.2402C60.6055 22.6797 60.6738 22.1693 60.8105 21.709C60.9473 21.2441 61.1432 20.8454 61.3984 20.5127C61.6536 20.1755 61.9635 19.918 62.3281 19.7402C62.6927 19.5579 63.1051 19.4668 63.5654 19.4668C64.0439 19.4668 64.4518 19.5534 64.7891 19.7266C65.1309 19.8997 65.4157 20.1481 65.6436 20.4717C65.8714 20.7907 66.0492 21.1735 66.1768 21.6201C66.3089 22.0622 66.4069 22.5544 66.4707 23.0967V23.5547C66.4115 24.0833 66.3112 24.5664 66.1699 25.0039C66.0286 25.4414 65.8418 25.8197 65.6094 26.1387C65.377 26.4577 65.0898 26.7038 64.748 26.877C64.4108 27.0501 64.012 27.1367 63.5518 27.1367C63.1006 27.1367 62.6927 27.0433 62.3281 26.8564C61.9681 26.6696 61.6582 26.4076 61.3984 26.0703C61.1432 25.7331 60.9473 25.3366 60.8105 24.8809C60.6738 24.4206 60.6055 23.9215 60.6055 23.3838ZM62.2529 23.2402V23.3838C62.2529 23.721 62.2848 24.0355 62.3486 24.3271C62.417 24.6188 62.5195 24.8763 62.6562 25.0996C62.7975 25.3184 62.9753 25.4915 63.1895 25.6191C63.4082 25.7422 63.6657 25.8037 63.9619 25.8037C64.3493 25.8037 64.666 25.7217 64.9121 25.5576C65.1628 25.3936 65.3542 25.1725 65.4863 24.8945C65.623 24.612 65.7188 24.2975 65.7734 23.9512V22.7139C65.7461 22.445 65.6891 22.1943 65.6025 21.9619C65.5205 21.7295 65.4089 21.5267 65.2676 21.3535C65.1263 21.1758 64.9486 21.0391 64.7344 20.9434C64.5202 20.8431 64.2673 20.793 63.9756 20.793C63.6794 20.793 63.4219 20.8568 63.2031 20.9844C62.9844 21.112 62.8044 21.2874 62.6631 21.5107C62.5264 21.734 62.4238 21.9938 62.3555 22.29C62.2871 22.5863 62.2529 22.903 62.2529 23.2402ZM70.4697 21.1826V27H68.8223V19.6035H70.374L70.4697 21.1826ZM70.1758 23.0283L69.6426 23.0215C69.6471 22.4974 69.7201 22.0166 69.8613 21.5791C70.0072 21.1416 70.2077 20.7656 70.4629 20.4512C70.7227 20.1367 71.0326 19.8952 71.3926 19.7266C71.7526 19.5534 72.1536 19.4668 72.5957 19.4668C72.9512 19.4668 73.2725 19.5169 73.5596 19.6172C73.8512 19.7129 74.0996 19.8701 74.3047 20.0889C74.5143 20.3076 74.6738 20.5924 74.7832 20.9434C74.8926 21.2897 74.9473 21.7158 74.9473 22.2217V27H73.293V22.2148C73.293 21.8594 73.2406 21.5791 73.1357 21.374C73.0355 21.1644 72.8874 21.0163 72.6914 20.9297C72.5 20.8385 72.2607 20.793 71.9736 20.793C71.6911 20.793 71.4382 20.8522 71.2148 20.9707C70.9915 21.0892 70.8024 21.251 70.6475 21.4561C70.4971 21.6611 70.3809 21.8981 70.2988 22.167C70.2168 22.4359 70.1758 22.723 70.1758 23.0283ZM84.5654 25.2568V19.6035H86.2197V27H84.6611L84.5654 25.2568ZM84.7979 23.7188L85.3516 23.7051C85.3516 24.2018 85.2969 24.6598 85.1875 25.0791C85.0781 25.4938 84.9095 25.8561 84.6816 26.166C84.4538 26.4714 84.1621 26.7106 83.8066 26.8838C83.4512 27.0524 83.0251 27.1367 82.5283 27.1367C82.1683 27.1367 81.8379 27.0843 81.5371 26.9795C81.2363 26.8747 80.9766 26.7129 80.7578 26.4941C80.5436 26.2754 80.3773 25.9906 80.2588 25.6396C80.1403 25.2887 80.0811 24.8695 80.0811 24.3818V19.6035H81.7285V24.3955C81.7285 24.6644 81.7604 24.89 81.8242 25.0723C81.888 25.25 81.9746 25.3936 82.084 25.5029C82.1934 25.6123 82.321 25.6898 82.4668 25.7354C82.6126 25.7809 82.7676 25.8037 82.9316 25.8037C83.401 25.8037 83.7702 25.7126 84.0391 25.5303C84.3125 25.3434 84.5062 25.0928 84.6201 24.7783C84.7386 24.4639 84.7979 24.1107 84.7979 23.7188ZM89.5625 21.0254V29.8438H87.915V19.6035H89.4326L89.5625 21.0254ZM94.3818 23.2334V23.377C94.3818 23.9147 94.318 24.4137 94.1904 24.874C94.0674 25.3298 93.8828 25.7285 93.6367 26.0703C93.3952 26.4076 93.0967 26.6696 92.7412 26.8564C92.3857 27.0433 91.9756 27.1367 91.5107 27.1367C91.0505 27.1367 90.6471 27.0524 90.3008 26.8838C89.959 26.7106 89.6696 26.4668 89.4326 26.1523C89.1956 25.8379 89.0042 25.4688 88.8584 25.0449C88.7171 24.6165 88.6169 24.1471 88.5576 23.6367V23.083C88.6169 22.5407 88.7171 22.0485 88.8584 21.6064C89.0042 21.1644 89.1956 20.7839 89.4326 20.4648C89.6696 20.1458 89.959 19.8997 90.3008 19.7266C90.6426 19.5534 91.0413 19.4668 91.4971 19.4668C91.9619 19.4668 92.3743 19.5579 92.7344 19.7402C93.0944 19.918 93.3975 20.1732 93.6436 20.5059C93.8896 20.834 94.0742 21.2305 94.1973 21.6953C94.3203 22.1556 94.3818 22.6683 94.3818 23.2334ZM92.7344 23.377V23.2334C92.7344 22.8916 92.7025 22.5749 92.6387 22.2832C92.5749 21.987 92.4746 21.7272 92.3379 21.5039C92.2012 21.2806 92.0257 21.1074 91.8115 20.9844C91.6019 20.8568 91.349 20.793 91.0527 20.793C90.7611 20.793 90.5104 20.8431 90.3008 20.9434C90.0911 21.0391 89.9157 21.1735 89.7744 21.3467C89.6331 21.5199 89.5238 21.7227 89.4463 21.9551C89.3688 22.1829 89.3141 22.4313 89.2822 22.7002V24.0264C89.3369 24.3545 89.4303 24.6553 89.5625 24.9287C89.6947 25.2021 89.8815 25.4209 90.123 25.585C90.3691 25.7445 90.6836 25.8242 91.0664 25.8242C91.3626 25.8242 91.6156 25.7604 91.8252 25.6328C92.0348 25.5052 92.2057 25.3298 92.3379 25.1064C92.4746 24.8786 92.5749 24.6165 92.6387 24.3203C92.7025 24.0241 92.7344 23.7096 92.7344 23.377ZM101.279 25.3594L102.988 19.6035H104.041L103.754 21.3262L102.031 27H101.088L101.279 25.3594ZM100.274 19.6035L101.607 25.3867L101.717 27H100.664L98.6611 19.6035H100.274ZM105.641 25.3184L106.933 19.6035H108.539L106.543 27H105.49L105.641 25.3184ZM104.219 19.6035L105.907 25.291L106.119 27H105.176L103.433 21.3193L103.146 19.6035H104.219ZM111.424 19.6035V27H109.77V19.6035H111.424ZM109.66 17.6621C109.66 17.4115 109.742 17.2041 109.906 17.04C110.075 16.8714 110.307 16.7871 110.604 16.7871C110.895 16.7871 111.125 16.8714 111.294 17.04C111.463 17.2041 111.547 17.4115 111.547 17.6621C111.547 17.9082 111.463 18.1133 111.294 18.2773C111.125 18.4414 110.895 18.5234 110.604 18.5234C110.307 18.5234 110.075 18.4414 109.906 18.2773C109.742 18.1133 109.66 17.9082 109.66 17.6621ZM116.619 19.6035V20.8066H112.449V19.6035H116.619ZM113.652 17.792H115.3V24.9561C115.3 25.1839 115.332 25.3594 115.396 25.4824C115.464 25.6009 115.557 25.6807 115.676 25.7217C115.794 25.7627 115.933 25.7832 116.093 25.7832C116.207 25.7832 116.316 25.7764 116.421 25.7627C116.526 25.749 116.61 25.7354 116.674 25.7217L116.681 26.9795C116.544 27.0205 116.384 27.057 116.202 27.0889C116.024 27.1208 115.819 27.1367 115.587 27.1367C115.209 27.1367 114.874 27.0706 114.582 26.9385C114.29 26.8018 114.062 26.5807 113.898 26.2754C113.734 25.9701 113.652 25.5645 113.652 25.0586V17.792ZM119.518 16.5V27H117.877V16.5H119.518ZM119.23 23.0283L118.697 23.0215C118.702 22.5111 118.772 22.0394 118.909 21.6064C119.05 21.1735 119.246 20.7975 119.497 20.4785C119.752 20.1549 120.058 19.9066 120.413 19.7334C120.769 19.5557 121.163 19.4668 121.596 19.4668C121.96 19.4668 122.288 19.5169 122.58 19.6172C122.876 19.7174 123.132 19.8792 123.346 20.1025C123.56 20.3213 123.722 20.6084 123.831 20.9639C123.945 21.3148 124.002 21.7432 124.002 22.249V27H122.348V22.2354C122.348 21.8799 122.295 21.5973 122.19 21.3877C122.09 21.1781 121.942 21.0277 121.746 20.9365C121.55 20.8408 121.311 20.793 121.028 20.793C120.732 20.793 120.47 20.8522 120.242 20.9707C120.019 21.0892 119.832 21.251 119.682 21.4561C119.531 21.6611 119.417 21.8981 119.34 22.167C119.267 22.4359 119.23 22.723 119.23 23.0283ZM136.963 21.9141V25.7148C136.822 25.9017 136.601 26.1068 136.3 26.3301C136.004 26.5488 135.609 26.738 135.117 26.8975C134.625 27.057 134.012 27.1367 133.278 27.1367C132.654 27.1367 132.082 27.0319 131.562 26.8223C131.043 26.6081 130.594 26.2959 130.216 25.8857C129.842 25.4756 129.553 24.9766 129.348 24.3887C129.143 23.7962 129.04 23.1217 129.04 22.3652V21.6748C129.04 20.9229 129.133 20.2529 129.32 19.665C129.512 19.0726 129.785 18.5713 130.141 18.1611C130.496 17.751 130.924 17.4411 131.426 17.2314C131.932 17.0173 132.504 16.9102 133.142 16.9102C133.957 16.9102 134.632 17.0469 135.165 17.3203C135.703 17.5892 136.118 17.9629 136.409 18.4414C136.701 18.9199 136.885 19.4668 136.963 20.082H135.281C135.227 19.7357 135.119 19.4258 134.96 19.1523C134.805 18.8789 134.582 18.6647 134.29 18.5098C134.003 18.3503 133.629 18.2705 133.169 18.2705C132.772 18.2705 132.424 18.3457 132.123 18.4961C131.822 18.6465 131.572 18.8675 131.371 19.1592C131.175 19.4508 131.027 19.8063 130.927 20.2256C130.826 20.6449 130.776 21.1234 130.776 21.6611V22.3652C130.776 22.9121 130.833 23.3975 130.947 23.8213C131.066 24.2451 131.234 24.6029 131.453 24.8945C131.676 25.1862 131.948 25.4072 132.267 25.5576C132.586 25.7035 132.946 25.7764 133.347 25.7764C133.739 25.7764 134.06 25.7445 134.311 25.6807C134.561 25.6123 134.759 25.5326 134.905 25.4414C135.056 25.3457 135.172 25.2546 135.254 25.168V23.1924H133.183V21.9141H136.963ZM138.385 23.3838V23.2266C138.385 22.6934 138.462 22.1989 138.617 21.7432C138.772 21.2829 138.995 20.8841 139.287 20.5469C139.583 20.2051 139.943 19.9408 140.367 19.7539C140.796 19.5625 141.279 19.4668 141.816 19.4668C142.359 19.4668 142.842 19.5625 143.266 19.7539C143.694 19.9408 144.056 20.2051 144.353 20.5469C144.649 20.8841 144.874 21.2829 145.029 21.7432C145.184 22.1989 145.262 22.6934 145.262 23.2266V23.3838C145.262 23.917 145.184 24.4115 145.029 24.8672C144.874 25.3229 144.649 25.7217 144.353 26.0635C144.056 26.4007 143.696 26.665 143.272 26.8564C142.849 27.0433 142.368 27.1367 141.83 27.1367C141.288 27.1367 140.802 27.0433 140.374 26.8564C139.95 26.665 139.59 26.4007 139.294 26.0635C138.998 25.7217 138.772 25.3229 138.617 24.8672C138.462 24.4115 138.385 23.917 138.385 23.3838ZM140.032 23.2266V23.3838C140.032 23.7165 140.066 24.0309 140.135 24.3271C140.203 24.6234 140.31 24.8831 140.456 25.1064C140.602 25.3298 140.789 25.5052 141.017 25.6328C141.244 25.7604 141.516 25.8242 141.83 25.8242C142.135 25.8242 142.4 25.7604 142.623 25.6328C142.851 25.5052 143.038 25.3298 143.184 25.1064C143.329 24.8831 143.437 24.6234 143.505 24.3271C143.578 24.0309 143.614 23.7165 143.614 23.3838V23.2266C143.614 22.8984 143.578 22.5885 143.505 22.2969C143.437 22.0007 143.327 21.7386 143.177 21.5107C143.031 21.2829 142.844 21.1051 142.616 20.9775C142.393 20.8454 142.126 20.7793 141.816 20.7793C141.507 20.7793 141.238 20.8454 141.01 20.9775C140.786 21.1051 140.602 21.2829 140.456 21.5107C140.31 21.7386 140.203 22.0007 140.135 22.2969C140.066 22.5885 140.032 22.8984 140.032 23.2266ZM146.328 23.3838V23.2266C146.328 22.6934 146.406 22.1989 146.561 21.7432C146.715 21.2829 146.939 20.8841 147.23 20.5469C147.527 20.2051 147.887 19.9408 148.311 19.7539C148.739 19.5625 149.222 19.4668 149.76 19.4668C150.302 19.4668 150.785 19.5625 151.209 19.7539C151.637 19.9408 152 20.2051 152.296 20.5469C152.592 20.8841 152.818 21.2829 152.973 21.7432C153.128 22.1989 153.205 22.6934 153.205 23.2266V23.3838C153.205 23.917 153.128 24.4115 152.973 24.8672C152.818 25.3229 152.592 25.7217 152.296 26.0635C152 26.4007 151.64 26.665 151.216 26.8564C150.792 27.0433 150.311 27.1367 149.773 27.1367C149.231 27.1367 148.746 27.0433 148.317 26.8564C147.894 26.665 147.534 26.4007 147.237 26.0635C146.941 25.7217 146.715 25.3229 146.561 24.8672C146.406 24.4115 146.328 23.917 146.328 23.3838ZM147.976 23.2266V23.3838C147.976 23.7165 148.01 24.0309 148.078 24.3271C148.146 24.6234 148.254 24.8831 148.399 25.1064C148.545 25.3298 148.732 25.5052 148.96 25.6328C149.188 25.7604 149.459 25.8242 149.773 25.8242C150.079 25.8242 150.343 25.7604 150.566 25.6328C150.794 25.5052 150.981 25.3298 151.127 25.1064C151.273 24.8831 151.38 24.6234 151.448 24.3271C151.521 24.0309 151.558 23.7165 151.558 23.3838V23.2266C151.558 22.8984 151.521 22.5885 151.448 22.2969C151.38 22.0007 151.271 21.7386 151.12 21.5107C150.974 21.2829 150.787 21.1051 150.56 20.9775C150.336 20.8454 150.07 20.7793 149.76 20.7793C149.45 20.7793 149.181 20.8454 148.953 20.9775C148.73 21.1051 148.545 21.2829 148.399 21.5107C148.254 21.7386 148.146 22.0007 148.078 22.2969C148.01 22.5885 147.976 22.8984 147.976 23.2266ZM159.323 19.6035H160.82V26.7949C160.82 27.4603 160.679 28.0254 160.396 28.4902C160.114 28.9551 159.72 29.3083 159.214 29.5498C158.708 29.7959 158.122 29.9189 157.457 29.9189C157.174 29.9189 156.86 29.8779 156.514 29.7959C156.172 29.7139 155.839 29.5817 155.516 29.3994C155.197 29.2217 154.93 28.987 154.716 28.6953L155.488 27.7246C155.753 28.0391 156.044 28.2692 156.363 28.415C156.682 28.5609 157.017 28.6338 157.368 28.6338C157.746 28.6338 158.068 28.5632 158.332 28.4219C158.601 28.2852 158.808 28.0824 158.954 27.8135C159.1 27.5446 159.173 27.2165 159.173 26.8291V21.2783L159.323 19.6035ZM154.299 23.3838V23.2402C154.299 22.6797 154.367 22.1693 154.504 21.709C154.641 21.2441 154.837 20.8454 155.092 20.5127C155.347 20.1755 155.657 19.918 156.021 19.7402C156.386 19.5579 156.799 19.4668 157.259 19.4668C157.737 19.4668 158.145 19.5534 158.482 19.7266C158.824 19.8997 159.109 20.1481 159.337 20.4717C159.565 20.7907 159.743 21.1735 159.87 21.6201C160.002 22.0622 160.1 22.5544 160.164 23.0967V23.5547C160.105 24.0833 160.005 24.5664 159.863 25.0039C159.722 25.4414 159.535 25.8197 159.303 26.1387C159.07 26.4577 158.783 26.7038 158.441 26.877C158.104 27.0501 157.705 27.1367 157.245 27.1367C156.794 27.1367 156.386 27.0433 156.021 26.8564C155.661 26.6696 155.352 26.4076 155.092 26.0703C154.837 25.7331 154.641 25.3366 154.504 24.8809C154.367 24.4206 154.299 23.9215 154.299 23.3838ZM155.946 23.2402V23.3838C155.946 23.721 155.978 24.0355 156.042 24.3271C156.11 24.6188 156.213 24.8763 156.35 25.0996C156.491 25.3184 156.669 25.4915 156.883 25.6191C157.102 25.7422 157.359 25.8037 157.655 25.8037C158.043 25.8037 158.359 25.7217 158.605 25.5576C158.856 25.3936 159.048 25.1725 159.18 24.8945C159.316 24.612 159.412 24.2975 159.467 23.9512V22.7139C159.439 22.445 159.382 22.1943 159.296 21.9619C159.214 21.7295 159.102 21.5267 158.961 21.3535C158.82 21.1758 158.642 21.0391 158.428 20.9434C158.214 20.8431 157.961 20.793 157.669 20.793C157.373 20.793 157.115 20.8568 156.896 20.9844C156.678 21.112 156.498 21.2874 156.356 21.5107C156.22 21.734 156.117 21.9938 156.049 22.29C155.98 22.5863 155.946 22.903 155.946 23.2402ZM164.293 16.5V27H162.639V16.5H164.293ZM169.358 27.1367C168.812 27.1367 168.317 27.0479 167.875 26.8701C167.438 26.6878 167.064 26.4349 166.754 26.1113C166.449 25.7878 166.214 25.4072 166.05 24.9697C165.886 24.5322 165.804 24.0605 165.804 23.5547V23.2812C165.804 22.7025 165.888 22.1784 166.057 21.709C166.225 21.2396 166.46 20.8385 166.761 20.5059C167.062 20.1686 167.417 19.9111 167.827 19.7334C168.237 19.5557 168.682 19.4668 169.16 19.4668C169.689 19.4668 170.151 19.5557 170.548 19.7334C170.944 19.9111 171.272 20.1618 171.532 20.4854C171.797 20.8044 171.993 21.1849 172.12 21.627C172.252 22.069 172.318 22.5566 172.318 23.0898V23.7939H166.604V22.6113H170.691V22.4814C170.682 22.1852 170.623 21.9072 170.514 21.6475C170.409 21.3877 170.247 21.1781 170.028 21.0186C169.81 20.859 169.518 20.7793 169.153 20.7793C168.88 20.7793 168.636 20.8385 168.422 20.957C168.212 21.071 168.037 21.2373 167.896 21.4561C167.754 21.6748 167.645 21.9391 167.567 22.249C167.494 22.5544 167.458 22.8984 167.458 23.2812V23.5547C167.458 23.8783 167.501 24.179 167.588 24.457C167.679 24.7305 167.811 24.9697 167.984 25.1748C168.158 25.3799 168.367 25.5417 168.613 25.6602C168.859 25.7741 169.14 25.8311 169.454 25.8311C169.851 25.8311 170.204 25.7513 170.514 25.5918C170.824 25.4323 171.092 25.2067 171.32 24.915L172.188 25.7559C172.029 25.9883 171.822 26.2116 171.566 26.4258C171.311 26.6354 170.999 26.8063 170.63 26.9385C170.265 27.0706 169.841 27.1367 169.358 27.1367Z" fill="#1F1F1F"/>
<defs>
<clipPath id="clip0_760_7244">
<rect width="20" height="20" fill="white" transform="translate(16 12)"/>
</clipPath>
</defs>
</svg>
