<svg width="185" height="44" viewBox="0 0 185 44" fill="none" xmlns="http://www.w3.org/2000/svg">
<rect width="185" height="44" rx="22" fill="#F2F2F2"/>
<g clip-path="url(#clip0_710_6234)">
<path d="M35.6 22.2273C35.6 21.5182 35.5364 20.8364 35.4182 20.1818H26V24.05H31.3818C31.15 25.3 30.4455 26.3591 29.3864 27.0682V29.5773H32.6182C34.5091 27.8364 35.6 25.2727 35.6 22.2273Z" fill="#4285F4"/>
<path d="M26.0001 32C28.7001 32 30.9637 31.1045 32.6183 29.5773L29.3864 27.0682C28.491 27.6682 27.3455 28.0227 26.0001 28.0227C23.3955 28.0227 21.191 26.2636 20.4046 23.9H17.0637V26.4909C18.7092 29.7591 22.091 32 26.0001 32Z" fill="#34A853"/>
<path d="M20.4045 23.9C20.2045 23.3 20.0909 22.6591 20.0909 22C20.0909 21.3409 20.2045 20.7 20.4045 20.1V17.5091H17.0636C16.3864 18.8591 16 20.3864 16 22C16 23.6136 16.3864 25.1409 17.0636 26.4909L20.4045 23.9Z" fill="#FBBC04"/>
<path d="M26.0001 15.9773C27.4683 15.9773 28.7864 16.4818 29.8228 17.4727L32.691 14.6045C30.9592 12.9909 28.6955 12 26.0001 12C22.091 12 18.7092 14.2409 17.0637 17.5091L20.4046 20.1C21.191 17.7364 23.3955 15.9773 26.0001 15.9773Z" fill="#E94235"/>
</g>
<path d="M54.248 24.4365C54.248 24.2314 54.2161 24.0492 54.1523 23.8896C54.0931 23.7301 53.986 23.5843 53.8311 23.4521C53.6761 23.32 53.4574 23.1924 53.1748 23.0693C52.8968 22.9417 52.5413 22.8118 52.1084 22.6797C51.6344 22.5339 51.1969 22.3721 50.7959 22.1943C50.3994 22.012 50.0531 21.8024 49.7568 21.5654C49.4606 21.3239 49.2305 21.0482 49.0664 20.7383C48.9023 20.4238 48.8203 20.0615 48.8203 19.6514C48.8203 19.2458 48.9046 18.8766 49.0732 18.5439C49.2464 18.2113 49.4902 17.9242 49.8047 17.6826C50.1237 17.4365 50.4997 17.2474 50.9326 17.1152C51.3656 16.9785 51.8441 16.9102 52.3682 16.9102C53.1064 16.9102 53.7422 17.0469 54.2754 17.3203C54.8132 17.5938 55.2256 17.9606 55.5127 18.4209C55.8044 18.8812 55.9502 19.3893 55.9502 19.9453H54.248C54.248 19.6172 54.1774 19.3278 54.0361 19.0771C53.8994 18.8219 53.6898 18.6214 53.4072 18.4756C53.1292 18.3298 52.776 18.2568 52.3477 18.2568C51.9421 18.2568 51.6048 18.3184 51.3359 18.4414C51.0671 18.5645 50.8665 18.7308 50.7344 18.9404C50.6022 19.1501 50.5361 19.387 50.5361 19.6514C50.5361 19.8382 50.5794 20.0091 50.666 20.1641C50.7526 20.3145 50.8848 20.4557 51.0625 20.5879C51.2402 20.7155 51.4635 20.8363 51.7324 20.9502C52.0013 21.0641 52.318 21.1735 52.6826 21.2783C53.234 21.4424 53.7148 21.6247 54.125 21.8252C54.5352 22.0212 54.877 22.2445 55.1504 22.4951C55.4238 22.7458 55.6289 23.0306 55.7656 23.3496C55.9023 23.6641 55.9707 24.0218 55.9707 24.4229C55.9707 24.8421 55.8864 25.2204 55.7178 25.5576C55.5492 25.8903 55.3076 26.1751 54.9932 26.4121C54.6833 26.6445 54.3096 26.8245 53.8721 26.9521C53.4391 27.0752 52.9561 27.1367 52.4229 27.1367C51.9443 27.1367 51.4727 27.0729 51.0078 26.9453C50.5475 26.8177 50.1283 26.624 49.75 26.3643C49.3717 26.0999 49.071 25.7718 48.8477 25.3799C48.6243 24.9834 48.5127 24.5208 48.5127 23.9922H50.2285C50.2285 24.3158 50.2832 24.5915 50.3926 24.8193C50.5065 25.0472 50.6637 25.234 50.8643 25.3799C51.0648 25.5212 51.2972 25.626 51.5615 25.6943C51.8304 25.7627 52.1175 25.7969 52.4229 25.7969C52.8239 25.7969 53.1589 25.7399 53.4277 25.626C53.7012 25.512 53.9062 25.3525 54.043 25.1475C54.1797 24.9424 54.248 24.7054 54.248 24.4365ZM59.0879 19.6035V27H57.4336V19.6035H59.0879ZM57.3242 17.6621C57.3242 17.4115 57.4062 17.2041 57.5703 17.04C57.7389 16.8714 57.9714 16.7871 58.2676 16.7871C58.5592 16.7871 58.7894 16.8714 58.958 17.04C59.1266 17.2041 59.2109 17.4115 59.2109 17.6621C59.2109 17.9082 59.1266 18.1133 58.958 18.2773C58.7894 18.4414 58.5592 18.5234 58.2676 18.5234C57.9714 18.5234 57.7389 18.4414 57.5703 18.2773C57.4062 18.1133 57.3242 17.9082 57.3242 17.6621ZM65.6299 19.6035H67.127V26.7949C67.127 27.4603 66.9857 28.0254 66.7031 28.4902C66.4206 28.9551 66.0264 29.3083 65.5205 29.5498C65.0146 29.7959 64.429 29.9189 63.7637 29.9189C63.4811 29.9189 63.1667 29.8779 62.8203 29.7959C62.4785 29.7139 62.1458 29.5817 61.8223 29.3994C61.5033 29.2217 61.2367 28.987 61.0225 28.6953L61.7949 27.7246C62.0592 28.0391 62.3509 28.2692 62.6699 28.415C62.9889 28.5609 63.3239 28.6338 63.6748 28.6338C64.0531 28.6338 64.3743 28.5632 64.6387 28.4219C64.9076 28.2852 65.1149 28.0824 65.2607 27.8135C65.4066 27.5446 65.4795 27.2165 65.4795 26.8291V21.2783L65.6299 19.6035ZM60.6055 23.3838V23.2402C60.6055 22.6797 60.6738 22.1693 60.8105 21.709C60.9473 21.2441 61.1432 20.8454 61.3984 20.5127C61.6536 20.1755 61.9635 19.918 62.3281 19.7402C62.6927 19.5579 63.1051 19.4668 63.5654 19.4668C64.0439 19.4668 64.4518 19.5534 64.7891 19.7266C65.1309 19.8997 65.4157 20.1481 65.6436 20.4717C65.8714 20.7907 66.0492 21.1735 66.1768 21.6201C66.3089 22.0622 66.4069 22.5544 66.4707 23.0967V23.5547C66.4115 24.0833 66.3112 24.5664 66.1699 25.0039C66.0286 25.4414 65.8418 25.8197 65.6094 26.1387C65.377 26.4577 65.0898 26.7038 64.748 26.877C64.4108 27.0501 64.012 27.1367 63.5518 27.1367C63.1006 27.1367 62.6927 27.0433 62.3281 26.8564C61.9681 26.6696 61.6582 26.4076 61.3984 26.0703C61.1432 25.7331 60.9473 25.3366 60.8105 24.8809C60.6738 24.4206 60.6055 23.9215 60.6055 23.3838ZM62.2529 23.2402V23.3838C62.2529 23.721 62.2848 24.0355 62.3486 24.3271C62.417 24.6188 62.5195 24.8763 62.6562 25.0996C62.7975 25.3184 62.9753 25.4915 63.1895 25.6191C63.4082 25.7422 63.6657 25.8037 63.9619 25.8037C64.3493 25.8037 64.666 25.7217 64.9121 25.5576C65.1628 25.3936 65.3542 25.1725 65.4863 24.8945C65.623 24.612 65.7188 24.2975 65.7734 23.9512V22.7139C65.7461 22.445 65.6891 22.1943 65.6025 21.9619C65.5205 21.7295 65.4089 21.5267 65.2676 21.3535C65.1263 21.1758 64.9486 21.0391 64.7344 20.9434C64.5202 20.8431 64.2673 20.793 63.9756 20.793C63.6794 20.793 63.4219 20.8568 63.2031 20.9844C62.9844 21.112 62.8044 21.2874 62.6631 21.5107C62.5264 21.734 62.4238 21.9938 62.3555 22.29C62.2871 22.5863 62.2529 22.903 62.2529 23.2402ZM70.4697 21.1826V27H68.8223V19.6035H70.374L70.4697 21.1826ZM70.1758 23.0283L69.6426 23.0215C69.6471 22.4974 69.7201 22.0166 69.8613 21.5791C70.0072 21.1416 70.2077 20.7656 70.4629 20.4512C70.7227 20.1367 71.0326 19.8952 71.3926 19.7266C71.7526 19.5534 72.1536 19.4668 72.5957 19.4668C72.9512 19.4668 73.2725 19.5169 73.5596 19.6172C73.8512 19.7129 74.0996 19.8701 74.3047 20.0889C74.5143 20.3076 74.6738 20.5924 74.7832 20.9434C74.8926 21.2897 74.9473 21.7158 74.9473 22.2217V27H73.293V22.2148C73.293 21.8594 73.2406 21.5791 73.1357 21.374C73.0355 21.1644 72.8874 21.0163 72.6914 20.9297C72.5 20.8385 72.2607 20.793 71.9736 20.793C71.6911 20.793 71.4382 20.8522 71.2148 20.9707C70.9915 21.0892 70.8024 21.251 70.6475 21.4561C70.4971 21.6611 70.3809 21.8981 70.2988 22.167C70.2168 22.4359 70.1758 22.723 70.1758 23.0283ZM81.8789 19.6035V27H80.2246V19.6035H81.8789ZM80.1152 17.6621C80.1152 17.4115 80.1973 17.2041 80.3613 17.04C80.5299 16.8714 80.7624 16.7871 81.0586 16.7871C81.3503 16.7871 81.5804 16.8714 81.749 17.04C81.9176 17.2041 82.002 17.4115 82.002 17.6621C82.002 17.9082 81.9176 18.1133 81.749 18.2773C81.5804 18.4414 81.3503 18.5234 81.0586 18.5234C80.7624 18.5234 80.5299 18.4414 80.3613 18.2773C80.1973 18.1133 80.1152 17.9082 80.1152 17.6621ZM85.3174 21.1826V27H83.6699V19.6035H85.2217L85.3174 21.1826ZM85.0234 23.0283L84.4902 23.0215C84.4948 22.4974 84.5677 22.0166 84.709 21.5791C84.8548 21.1416 85.0553 20.7656 85.3105 20.4512C85.5703 20.1367 85.8802 19.8952 86.2402 19.7266C86.6003 19.5534 87.0013 19.4668 87.4434 19.4668C87.7988 19.4668 88.1201 19.5169 88.4072 19.6172C88.6989 19.7129 88.9473 19.8701 89.1523 20.0889C89.362 20.3076 89.5215 20.5924 89.6309 20.9434C89.7402 21.2897 89.7949 21.7158 89.7949 22.2217V27H88.1406V22.2148C88.1406 21.8594 88.0882 21.5791 87.9834 21.374C87.8831 21.1644 87.735 21.0163 87.5391 20.9297C87.3477 20.8385 87.1084 20.793 86.8213 20.793C86.5387 20.793 86.2858 20.8522 86.0625 20.9707C85.8392 21.0892 85.6501 21.251 85.4951 21.4561C85.3447 21.6611 85.2285 21.8981 85.1465 22.167C85.0645 22.4359 85.0234 22.723 85.0234 23.0283ZM96.9727 25.3594L98.6816 19.6035H99.7344L99.4473 21.3262L97.7246 27H96.7812L96.9727 25.3594ZM95.9678 19.6035L97.3008 25.3867L97.4102 27H96.3574L94.3545 19.6035H95.9678ZM101.334 25.3184L102.626 19.6035H104.232L102.236 27H101.184L101.334 25.3184ZM99.9121 19.6035L101.601 25.291L101.812 27H100.869L99.126 21.3193L98.8389 19.6035H99.9121ZM107.117 19.6035V27H105.463V19.6035H107.117ZM105.354 17.6621C105.354 17.4115 105.436 17.2041 105.6 17.04C105.768 16.8714 106.001 16.7871 106.297 16.7871C106.589 16.7871 106.819 16.8714 106.987 17.04C107.156 17.2041 107.24 17.4115 107.24 17.6621C107.24 17.9082 107.156 18.1133 106.987 18.2773C106.819 18.4414 106.589 18.5234 106.297 18.5234C106.001 18.5234 105.768 18.4414 105.6 18.2773C105.436 18.1133 105.354 17.9082 105.354 17.6621ZM112.312 19.6035V20.8066H108.143V19.6035H112.312ZM109.346 17.792H110.993V24.9561C110.993 25.1839 111.025 25.3594 111.089 25.4824C111.157 25.6009 111.251 25.6807 111.369 25.7217C111.488 25.7627 111.627 25.7832 111.786 25.7832C111.9 25.7832 112.009 25.7764 112.114 25.7627C112.219 25.749 112.303 25.7354 112.367 25.7217L112.374 26.9795C112.237 27.0205 112.078 27.057 111.896 27.0889C111.718 27.1208 111.513 27.1367 111.28 27.1367C110.902 27.1367 110.567 27.0706 110.275 26.9385C109.984 26.8018 109.756 26.5807 109.592 26.2754C109.428 25.9701 109.346 25.5645 109.346 25.0586V17.792ZM115.211 16.5V27H113.57V16.5H115.211ZM114.924 23.0283L114.391 23.0215C114.395 22.5111 114.466 22.0394 114.603 21.6064C114.744 21.1735 114.94 20.7975 115.19 20.4785C115.446 20.1549 115.751 19.9066 116.106 19.7334C116.462 19.5557 116.856 19.4668 117.289 19.4668C117.654 19.4668 117.982 19.5169 118.273 19.6172C118.57 19.7174 118.825 19.8792 119.039 20.1025C119.253 20.3213 119.415 20.6084 119.524 20.9639C119.638 21.3148 119.695 21.7432 119.695 22.249V27H118.041V22.2354C118.041 21.8799 117.989 21.5973 117.884 21.3877C117.784 21.1781 117.635 21.0277 117.439 20.9365C117.243 20.8408 117.004 20.793 116.722 20.793C116.425 20.793 116.163 20.8522 115.936 20.9707C115.712 21.0892 115.525 21.251 115.375 21.4561C115.225 21.6611 115.111 21.8981 115.033 22.167C114.96 22.4359 114.924 22.723 114.924 23.0283ZM132.656 21.9141V25.7148C132.515 25.9017 132.294 26.1068 131.993 26.3301C131.697 26.5488 131.303 26.738 130.811 26.8975C130.318 27.057 129.705 27.1367 128.972 27.1367C128.347 27.1367 127.775 27.0319 127.256 26.8223C126.736 26.6081 126.287 26.2959 125.909 25.8857C125.535 25.4756 125.246 24.9766 125.041 24.3887C124.836 23.7962 124.733 23.1217 124.733 22.3652V21.6748C124.733 20.9229 124.827 20.2529 125.014 19.665C125.205 19.0726 125.479 18.5713 125.834 18.1611C126.189 17.751 126.618 17.4411 127.119 17.2314C127.625 17.0173 128.197 16.9102 128.835 16.9102C129.651 16.9102 130.325 17.0469 130.858 17.3203C131.396 17.5892 131.811 17.9629 132.103 18.4414C132.394 18.9199 132.579 19.4668 132.656 20.082H130.975C130.92 19.7357 130.813 19.4258 130.653 19.1523C130.498 18.8789 130.275 18.6647 129.983 18.5098C129.696 18.3503 129.323 18.2705 128.862 18.2705C128.466 18.2705 128.117 18.3457 127.816 18.4961C127.516 18.6465 127.265 18.8675 127.064 19.1592C126.868 19.4508 126.72 19.8063 126.62 20.2256C126.52 20.6449 126.47 21.1234 126.47 21.6611V22.3652C126.47 22.9121 126.527 23.3975 126.641 23.8213C126.759 24.2451 126.928 24.6029 127.146 24.8945C127.37 25.1862 127.641 25.4072 127.96 25.5576C128.279 25.7035 128.639 25.7764 129.04 25.7764C129.432 25.7764 129.753 25.7445 130.004 25.6807C130.255 25.6123 130.453 25.5326 130.599 25.4414C130.749 25.3457 130.865 25.2546 130.947 25.168V23.1924H128.876V21.9141H132.656ZM134.078 23.3838V23.2266C134.078 22.6934 134.156 22.1989 134.311 21.7432C134.465 21.2829 134.689 20.8841 134.98 20.5469C135.277 20.2051 135.637 19.9408 136.061 19.7539C136.489 19.5625 136.972 19.4668 137.51 19.4668C138.052 19.4668 138.535 19.5625 138.959 19.7539C139.387 19.9408 139.75 20.2051 140.046 20.5469C140.342 20.8841 140.568 21.2829 140.723 21.7432C140.878 22.1989 140.955 22.6934 140.955 23.2266V23.3838C140.955 23.917 140.878 24.4115 140.723 24.8672C140.568 25.3229 140.342 25.7217 140.046 26.0635C139.75 26.4007 139.39 26.665 138.966 26.8564C138.542 27.0433 138.061 27.1367 137.523 27.1367C136.981 27.1367 136.496 27.0433 136.067 26.8564C135.644 26.665 135.284 26.4007 134.987 26.0635C134.691 25.7217 134.465 25.3229 134.311 24.8672C134.156 24.4115 134.078 23.917 134.078 23.3838ZM135.726 23.2266V23.3838C135.726 23.7165 135.76 24.0309 135.828 24.3271C135.896 24.6234 136.004 24.8831 136.149 25.1064C136.295 25.3298 136.482 25.5052 136.71 25.6328C136.938 25.7604 137.209 25.8242 137.523 25.8242C137.829 25.8242 138.093 25.7604 138.316 25.6328C138.544 25.5052 138.731 25.3298 138.877 25.1064C139.023 24.8831 139.13 24.6234 139.198 24.3271C139.271 24.0309 139.308 23.7165 139.308 23.3838V23.2266C139.308 22.8984 139.271 22.5885 139.198 22.2969C139.13 22.0007 139.021 21.7386 138.87 21.5107C138.724 21.2829 138.537 21.1051 138.31 20.9775C138.086 20.8454 137.82 20.7793 137.51 20.7793C137.2 20.7793 136.931 20.8454 136.703 20.9775C136.48 21.1051 136.295 21.2829 136.149 21.5107C136.004 21.7386 135.896 22.0007 135.828 22.2969C135.76 22.5885 135.726 22.8984 135.726 23.2266ZM142.021 23.3838V23.2266C142.021 22.6934 142.099 22.1989 142.254 21.7432C142.409 21.2829 142.632 20.8841 142.924 20.5469C143.22 20.2051 143.58 19.9408 144.004 19.7539C144.432 19.5625 144.915 19.4668 145.453 19.4668C145.995 19.4668 146.479 19.5625 146.902 19.7539C147.331 19.9408 147.693 20.2051 147.989 20.5469C148.285 20.8841 148.511 21.2829 148.666 21.7432C148.821 22.1989 148.898 22.6934 148.898 23.2266V23.3838C148.898 23.917 148.821 24.4115 148.666 24.8672C148.511 25.3229 148.285 25.7217 147.989 26.0635C147.693 26.4007 147.333 26.665 146.909 26.8564C146.485 27.0433 146.005 27.1367 145.467 27.1367C144.924 27.1367 144.439 27.0433 144.011 26.8564C143.587 26.665 143.227 26.4007 142.931 26.0635C142.634 25.7217 142.409 25.3229 142.254 24.8672C142.099 24.4115 142.021 23.917 142.021 23.3838ZM143.669 23.2266V23.3838C143.669 23.7165 143.703 24.0309 143.771 24.3271C143.84 24.6234 143.947 24.8831 144.093 25.1064C144.239 25.3298 144.425 25.5052 144.653 25.6328C144.881 25.7604 145.152 25.8242 145.467 25.8242C145.772 25.8242 146.036 25.7604 146.26 25.6328C146.488 25.5052 146.674 25.3298 146.82 25.1064C146.966 24.8831 147.073 24.6234 147.142 24.3271C147.215 24.0309 147.251 23.7165 147.251 23.3838V23.2266C147.251 22.8984 147.215 22.5885 147.142 22.2969C147.073 22.0007 146.964 21.7386 146.813 21.5107C146.668 21.2829 146.481 21.1051 146.253 20.9775C146.03 20.8454 145.763 20.7793 145.453 20.7793C145.143 20.7793 144.874 20.8454 144.646 20.9775C144.423 21.1051 144.239 21.2829 144.093 21.5107C143.947 21.7386 143.84 22.0007 143.771 22.2969C143.703 22.5885 143.669 22.8984 143.669 23.2266ZM155.017 19.6035H156.514V26.7949C156.514 27.4603 156.372 28.0254 156.09 28.4902C155.807 28.9551 155.413 29.3083 154.907 29.5498C154.401 29.7959 153.816 29.9189 153.15 29.9189C152.868 29.9189 152.553 29.8779 152.207 29.7959C151.865 29.7139 151.533 29.5817 151.209 29.3994C150.89 29.2217 150.623 28.987 150.409 28.6953L151.182 27.7246C151.446 28.0391 151.738 28.2692 152.057 28.415C152.376 28.5609 152.711 28.6338 153.062 28.6338C153.44 28.6338 153.761 28.5632 154.025 28.4219C154.294 28.2852 154.502 28.0824 154.647 27.8135C154.793 27.5446 154.866 27.2165 154.866 26.8291V21.2783L155.017 19.6035ZM149.992 23.3838V23.2402C149.992 22.6797 150.061 22.1693 150.197 21.709C150.334 21.2441 150.53 20.8454 150.785 20.5127C151.04 20.1755 151.35 19.918 151.715 19.7402C152.079 19.5579 152.492 19.4668 152.952 19.4668C153.431 19.4668 153.839 19.5534 154.176 19.7266C154.518 19.8997 154.802 20.1481 155.03 20.4717C155.258 20.7907 155.436 21.1735 155.563 21.6201C155.696 22.0622 155.794 22.5544 155.857 23.0967V23.5547C155.798 24.0833 155.698 24.5664 155.557 25.0039C155.415 25.4414 155.229 25.8197 154.996 26.1387C154.764 26.4577 154.477 26.7038 154.135 26.877C153.798 27.0501 153.399 27.1367 152.938 27.1367C152.487 27.1367 152.079 27.0433 151.715 26.8564C151.355 26.6696 151.045 26.4076 150.785 26.0703C150.53 25.7331 150.334 25.3366 150.197 24.8809C150.061 24.4206 149.992 23.9215 149.992 23.3838ZM151.64 23.2402V23.3838C151.64 23.721 151.672 24.0355 151.735 24.3271C151.804 24.6188 151.906 24.8763 152.043 25.0996C152.184 25.3184 152.362 25.4915 152.576 25.6191C152.795 25.7422 153.052 25.8037 153.349 25.8037C153.736 25.8037 154.053 25.7217 154.299 25.5576C154.549 25.3936 154.741 25.1725 154.873 24.8945C155.01 24.612 155.105 24.2975 155.16 23.9512V22.7139C155.133 22.445 155.076 22.1943 154.989 21.9619C154.907 21.7295 154.796 21.5267 154.654 21.3535C154.513 21.1758 154.335 21.0391 154.121 20.9434C153.907 20.8431 153.654 20.793 153.362 20.793C153.066 20.793 152.809 20.8568 152.59 20.9844C152.371 21.112 152.191 21.2874 152.05 21.5107C151.913 21.734 151.811 21.9938 151.742 22.29C151.674 22.5863 151.64 22.903 151.64 23.2402ZM159.986 16.5V27H158.332V16.5H159.986ZM165.052 27.1367C164.505 27.1367 164.01 27.0479 163.568 26.8701C163.131 26.6878 162.757 26.4349 162.447 26.1113C162.142 25.7878 161.907 25.4072 161.743 24.9697C161.579 24.5322 161.497 24.0605 161.497 23.5547V23.2812C161.497 22.7025 161.581 22.1784 161.75 21.709C161.919 21.2396 162.153 20.8385 162.454 20.5059C162.755 20.1686 163.11 19.9111 163.521 19.7334C163.931 19.5557 164.375 19.4668 164.854 19.4668C165.382 19.4668 165.845 19.5557 166.241 19.7334C166.638 19.9111 166.966 20.1618 167.226 20.4854C167.49 20.8044 167.686 21.1849 167.813 21.627C167.946 22.069 168.012 22.5566 168.012 23.0898V23.7939H162.297V22.6113H166.385V22.4814C166.376 22.1852 166.316 21.9072 166.207 21.6475C166.102 21.3877 165.94 21.1781 165.722 21.0186C165.503 20.859 165.211 20.7793 164.847 20.7793C164.573 20.7793 164.329 20.8385 164.115 20.957C163.906 21.071 163.73 21.2373 163.589 21.4561C163.448 21.6748 163.338 21.9391 163.261 22.249C163.188 22.5544 163.151 22.8984 163.151 23.2812V23.5547C163.151 23.8783 163.195 24.179 163.281 24.457C163.372 24.7305 163.505 24.9697 163.678 25.1748C163.851 25.3799 164.061 25.5417 164.307 25.6602C164.553 25.7741 164.833 25.8311 165.147 25.8311C165.544 25.8311 165.897 25.7513 166.207 25.5918C166.517 25.4323 166.786 25.2067 167.014 24.915L167.882 25.7559C167.722 25.9883 167.515 26.2116 167.26 26.4258C167.005 26.6354 166.692 26.8063 166.323 26.9385C165.959 27.0706 165.535 27.1367 165.052 27.1367Z" fill="#1F1F1F"/>
<defs>
<clipPath id="clip0_710_6234">
<rect width="20" height="20" fill="white" transform="translate(16 12)"/>
</clipPath>
</defs>
</svg>
